<?xml version="1.0" encoding="utf-8"?>
<!-- Generator: Adobe Illustrator 23.0.3, SVG Export Plug-In . SVG Version: 6.00 Build 0)  -->
<svg fill="#219EBC" version="1.1" id="Capa_1" xmlns="http://www.w3.org/2000/svg" xmlns:xlink="http://www.w3.org/1999/xlink" x="0px" y="0px"
	 viewBox="0 0 522.5 522.5" style="enable-background:new 0 0 522.5 522.5;" xml:space="preserve">
<g>
	<g>
		<path d="M317.8,66.5l-5.7-0.9c-2.3-0.8-4.5-0.5-6.7,0.7c-2.2,1.2-3.7,3.1-4.4,5.6L194.4,440.5c-0.8,2.5-0.5,4.8,0.7,7
			c1.2,2.2,3.1,3.7,5.6,4.4l5.7,0.9c2.3,0.8,4.5,0.5,6.7-0.7c2.2-1.2,3.7-3.1,4.4-5.6L324,77.9c0.8-2.5,0.5-4.8-0.7-7
			C322.1,68.7,320.2,67.3,317.8,66.5z"/>
		<path d="M158.2,136.5c0-2.5-1-4.7-2.9-6.6l-6.3-8.3c-1.9-1.9-4.1-2.9-6.6-2.9s-4.7,1-6.6,2.9l-133,133c-1.9,1.9-2.9,4.1-2.9,6.6
			s1,4.7,2.9,6.6l133,133c1.9,1.9,4.1,2.9,6.6,2.9s4.7-1,6.6-2.9l6.3-7.3c1.9-1.9,2.9-4.1,2.9-6.6c0-2.5-1-4.7-2.9-6.6L35.1,262.2
			L155.3,143C157.2,141.1,158.2,138.9,158.2,136.5z"/>
		<path d="M519.6,254.7l-133-133c-1.9-1.9-4.1-2.9-6.6-2.9c-2.5,0-4.7,1-6.6,2.9l-5.3,7.3c-1.9,1.9-2.9,4.1-2.9,6.6s0.9,4.7,2.9,6.6
			l120.2,119.2L367.2,380.4c-1.9,1.9-2.9,4.1-2.9,6.6c0,2.5,0.9,4.7,2.9,6.6l6.3,7.3c1.9,1.9,4.1,2.9,6.6,2.9c2.5,0,4.7-1,6.6-2.9
			l133-133c1.9-1.9,2.9-4.1,2.9-6.6C522.5,258.8,521.5,256.6,519.6,254.7z"/>
	</g>
</g>
</svg>
