<?xml version="1.0" encoding="utf-8"?>
<!-- Generator: Adobe Illustrator 23.0.4, SVG Export Plug-In . SVG Version: 6.00 Build 0)  -->
<svg version="1.1" id="Layer_1" xmlns="http://www.w3.org/2000/svg" xmlns:xlink="http://www.w3.org/1999/xlink" x="0px" y="0px"
	 viewBox="0 0 237 34" style="enable-background:new 0 0 237 34;" xml:space="preserve">
<style type="text/css">
	.st0{fill:url(#SVGID_1_);}
	.st1{fill:#362264;}
	.st2{fill:url(#SVGID_2_);}
	.st3{fill:url(#SVGID_3_);}
	.st4{fill:url(#SVGID_4_);}
	.st5{fill:#FFFFFF;}
</style>
<g>
	<linearGradient id="SVGID_1_" gradientUnits="userSpaceOnUse" x1="13.9846" y1="32.1971" x2="26.0899" y2="3.6789">
		<stop  offset="0" style="stop-color:#FFFFFF"/>
		<stop  offset="8.866995e-02" style="stop-color:#FFFFFF"/>
		<stop  offset="1" style="stop-color:#C7C3C3"/>
	</linearGradient>
	<ellipse class="st0" cx="20" cy="17.9" rx="15.8" ry="15.4"/>
	<g>
		<path class="st1" d="M18,33.3c0.4,0,0.7,0,1.1,0.1c3.1,0.1,6-0.6,8.6-2.2c0.9-0.5,1.7-1.2,2.4-1.9c0.6-0.7,1.3-1.3,1.8-2
			c1.4-1.8,2.2-3.9,2.6-6.1c0.3-1.4,0.3-2.8,0.2-4.2c-0.5-4.7-2.5-8.7-6.5-11.4c-1.9-1.3-4-2.1-6.2-2.5c-1.4-0.2-2.7-0.3-4.1-0.1
			c-4,0.5-7.4,2.3-10,5.3c-1.1,1.3-2,2.8-2.6,4.5c0,0.1,0,0.1-0.1,0.2c0.1-0.3,0.1-0.5,0.2-0.8C6.4,9,8,6.5,10.2,4.4
			C15,0.1,21.1-1,26.6,0.9c4.1,1.4,7.2,4,9.3,7.7c1.1,1.9,1.8,4,2.2,6.1c0.2,1.3,0.3,2.6,0.2,4c-0.2,2.6-0.8,5.1-2.1,7.3
			c-2.3,4.3-5.8,6.9-10.7,7.8c-1.5,0.3-3,0.3-4.6,0.1c-0.7-0.1-1.5-0.2-2.2-0.4C18.4,33.5,18.2,33.4,18,33.3z"/>
	</g>
	<g>
		<linearGradient id="SVGID_2_" gradientUnits="userSpaceOnUse" x1="14.3639" y1="11.0279" x2="14.852" y2="18.0084">
			<stop  offset="0" style="stop-color:#F8A066"/>
			<stop  offset="0.2069" style="stop-color:#F16A22"/>
			<stop  offset="0.6499" style="stop-color:#F16C24"/>
			<stop  offset="0.8095" style="stop-color:#F2722B"/>
			<stop  offset="0.9228" style="stop-color:#F37D36"/>
			<stop  offset="1" style="stop-color:#F58944"/>
		</linearGradient>
		<path class="st2" d="M5.5,11.7c-0.3,0.2-0.6,0.4-0.9,0.6c-0.2,0.2-0.4,0.3-0.5,0.5c-0.4,0.5-0.4,1.1,0,1.6c0.4,0.6,1,1,1.7,1.2
			c1.1,0.3,2.2,0.5,3.3,0.6c0.8,0.1,1.6,0.1,2.4,0.2c0.7,0,1.4,0.1,2.1,0c1,0,2-0.1,2.9-0.2c2-0.2,4-0.5,5.9-0.9
			c1.5-0.4,3-0.8,4.5-1.2c0.5-0.1,1-0.4,1.5-0.5c-0.1,0.1-0.3,0.2-0.4,0.3c-0.5,0.3-0.9,0.5-1.4,0.8c-1.6,0.8-3.3,1.5-5,2
			c-1.4,0.4-2.9,0.8-4.4,1.1c-1,0.2-1.9,0.3-2.9,0.4c-1.3,0.2-2.6,0.2-3.9,0.2c-0.9,0-1.7,0-2.6,0c-1.4-0.1-2.8-0.3-4.1-0.6
			C3,17.3,2.2,17,1.5,16.5c-0.2-0.2-0.4-0.4-0.6-0.7c-0.3-0.4-0.4-1-0.2-1.5c0.3-0.9,0.9-1.5,1.7-1.9C3.2,12,4,11.8,4.9,11.7
			C5.1,11.7,5.3,11.7,5.5,11.7C5.5,11.7,5.5,11.7,5.5,11.7z"/>
	</g>
	<g>
		<linearGradient id="SVGID_3_" gradientUnits="userSpaceOnUse" x1="13.0337" y1="17.5553" x2="14.3392" y2="24.2719">
			<stop  offset="0" style="stop-color:#F8A066"/>
			<stop  offset="4.850361e-02" style="stop-color:#F7975B"/>
			<stop  offset="0.1347" style="stop-color:#F47F3C"/>
			<stop  offset="0.197" style="stop-color:#F16A22"/>
			<stop  offset="0.6334" style="stop-color:#F16C24"/>
			<stop  offset="0.7905" style="stop-color:#F2722B"/>
			<stop  offset="0.9022" style="stop-color:#F37C36"/>
			<stop  offset="0.9922" style="stop-color:#F58A47"/>
			<stop  offset="1" style="stop-color:#F58C49"/>
		</linearGradient>
		<path class="st3" d="M6.5,19c-0.4,0.2-0.8,0.4-1.2,0.8c-0.4,0.5-0.5,1-0.1,1.6c0.4,0.5,0.9,0.8,1.5,0.9c0.8,0.2,1.7,0.3,2.5,0.4
			c0.7,0.1,1.4,0.1,2.2,0.1c0.8,0,1.5,0,2.3,0c0.7,0,1.4-0.1,2.1-0.2c0.7-0.1,1.5-0.2,2.2-0.3c1.2-0.2,2.4-0.5,3.6-0.8
			c1.2-0.3,2.3-0.7,3.5-1c0,0,0.1,0,0.1,0c-0.4,0.2-0.9,0.5-1.3,0.7c-0.4,0.2-0.9,0.4-1.3,0.6c-0.8,0.3-1.6,0.7-2.5,0.9
			c-1.4,0.5-2.9,0.8-4.4,1.1c-0.9,0.1-1.8,0.3-2.8,0.3c-1.1,0.1-2.3,0.1-3.4,0.1c-0.8,0-1.7-0.1-2.5-0.2c-0.8-0.1-1.6-0.2-2.4-0.4
			c-0.7-0.2-1.3-0.4-1.9-0.9c-0.4-0.3-0.7-0.8-0.7-1.3c0-0.4,0.2-0.7,0.4-1C3.2,19.8,4,19.3,5,19.1C5.5,19,6,19,6.5,19
			C6.5,18.9,6.5,19,6.5,19z"/>
	</g>
	<g>
		<linearGradient id="SVGID_4_" gradientUnits="userSpaceOnUse" x1="15.4041" y1="24.4086" x2="16.4397" y2="29.2807">
			<stop  offset="0" style="stop-color:#F8A066"/>
			<stop  offset="4.142192e-02" style="stop-color:#F79A5F"/>
			<stop  offset="0.1029" style="stop-color:#F58A4B"/>
			<stop  offset="0.1764" style="stop-color:#F2702A"/>
			<stop  offset="0.1921" style="stop-color:#F16A22"/>
			<stop  offset="0.6311" style="stop-color:#F16C24"/>
			<stop  offset="0.7892" style="stop-color:#F2722B"/>
			<stop  offset="0.9016" style="stop-color:#F37C36"/>
			<stop  offset="0.9922" style="stop-color:#F58A47"/>
			<stop  offset="1" style="stop-color:#F58C49"/>
		</linearGradient>
		<path class="st4" d="M10.7,25.5c-0.2,0.1-0.4,0.2-0.5,0.4C10,26,9.8,26.2,9.8,26.5c-0.1,0.2,0,0.4,0.1,0.6
			c0.2,0.3,0.5,0.6,0.9,0.7c0.7,0.1,1.4,0.3,2.1,0.4c1,0.1,2,0.2,3,0.1c1.4-0.1,2.8-0.2,4.1-0.5c1.2-0.2,2.4-0.5,3.5-0.9
			c0.2-0.1,0.5-0.1,0.7-0.2c-0.3,0.2-0.6,0.3-0.9,0.5c-1.1,0.5-2.2,1-3.4,1.3c-1.1,0.3-2.1,0.5-3.2,0.7c-1.4,0.2-2.7,0.2-4.1,0.2
			c-1.1,0-2.3-0.2-3.4-0.6c-0.3-0.1-0.5-0.2-0.8-0.4c-0.6-0.4-0.7-1-0.3-1.7c0.3-0.5,0.9-0.9,1.5-1C9.9,25.6,10.3,25.5,10.7,25.5
			C10.7,25.5,10.7,25.5,10.7,25.5z"/>
	</g>
</g>
<g>
	<path class="st5" d="M50.8,8.4h11l-0.3,2.8h-6.9l-0.2,2.1h6.4l-0.3,2.7h-6.4l-0.3,2.6h7.1l-0.4,3H49.3L50.8,8.4z"/>
	<path class="st5" d="M62.1,12.1h3.8l1.2,6.1l2.7-6.1h3.7l-5.2,9.7h-3.3L62.1,12.1z"/>
	<path class="st5" d="M72.5,16.9c0.2-1.5,0.8-2.7,1.9-3.6c1.1-1,2.5-1.4,4.2-1.4c1.9,0,3.3,0.6,4.2,1.7c0.7,0.9,1,2,0.8,3.3
		c-0.2,1.5-0.8,2.7-1.9,3.7c-1.1,0.9-2.5,1.4-4.3,1.4c-1.6,0-2.8-0.4-3.6-1.2C72.8,19.8,72.4,18.5,72.5,16.9z M76.3,16.9
		c-0.1,0.9,0,1.5,0.3,1.9c0.3,0.4,0.7,0.6,1.2,0.6c0.5,0,1-0.2,1.4-0.6c0.4-0.4,0.6-1.1,0.7-2c0.1-0.8,0-1.5-0.3-1.9
		c-0.3-0.4-0.7-0.6-1.2-0.6c-0.5,0-1,0.2-1.4,0.6C76.6,15.5,76.4,16.1,76.3,16.9z"/>
	<path class="st5" d="M86,8.4h3.8l-0.8,6.9l3.1-3.2h4.6l-3.9,3.4l2.9,6.3h-4.2L90,17.9l-1.6,1.4l-0.3,2.5h-3.8L86,8.4z"/>
	<path class="st5" d="M106.9,17.8h-7.4c0,0.6,0.1,1,0.3,1.3c0.3,0.4,0.8,0.6,1.3,0.6c0.4,0,0.7-0.1,1.1-0.3c0.2-0.1,0.5-0.3,0.7-0.6
		l3.6,0.3c-0.7,1-1.4,1.7-2.3,2.1c-0.8,0.4-2,0.6-3.5,0.6c-1.3,0-2.3-0.2-3-0.5c-0.7-0.4-1.2-0.9-1.6-1.7c-0.4-0.8-0.5-1.7-0.4-2.8
		c0.2-1.5,0.8-2.7,1.9-3.7c1.1-0.9,2.5-1.4,4.2-1.4c1.4,0,2.4,0.2,3.2,0.6c0.8,0.4,1.3,1,1.6,1.8c0.3,0.8,0.4,1.8,0.3,3.1
		L106.9,17.8z M103.3,16.1c0-0.7-0.1-1.2-0.4-1.5c-0.3-0.3-0.7-0.5-1.2-0.5c-0.6,0-1.1,0.2-1.5,0.7c-0.3,0.3-0.5,0.7-0.6,1.3H103.3z
		"/>
	<path class="st5" d="M108.5,8.4h12.5l-0.4,3.3h-4.2l-1.2,10h-4.1l1.2-10h-4.2L108.5,8.4z"/>
	<path class="st5" d="M130.7,17.8h-7.4c0,0.6,0.1,1,0.3,1.3c0.3,0.4,0.8,0.6,1.3,0.6c0.4,0,0.7-0.1,1.1-0.3c0.2-0.1,0.5-0.3,0.7-0.6
		l3.6,0.3c-0.7,1-1.4,1.7-2.3,2.1c-0.8,0.4-2,0.6-3.5,0.6c-1.3,0-2.3-0.2-3-0.5c-0.7-0.4-1.2-0.9-1.6-1.7c-0.4-0.8-0.5-1.7-0.4-2.8
		c0.2-1.5,0.8-2.7,1.9-3.7c1.1-0.9,2.5-1.4,4.2-1.4c1.4,0,2.4,0.2,3.2,0.6c0.8,0.4,1.3,1,1.6,1.8c0.3,0.8,0.4,1.8,0.3,3.1
		L130.7,17.8z M127.1,16.1c0-0.7-0.1-1.2-0.4-1.5c-0.3-0.3-0.7-0.5-1.2-0.5c-0.6,0-1.1,0.2-1.5,0.7c-0.3,0.3-0.5,0.7-0.6,1.3H127.1z
		"/>
	<path class="st5" d="M139.1,18l3.5,0.4c-0.3,0.7-0.7,1.4-1.2,1.9c-0.5,0.5-1.1,1-1.8,1.3c-0.7,0.3-1.6,0.4-2.7,0.4
		c-1,0-1.9-0.1-2.5-0.3c-0.7-0.2-1.2-0.5-1.7-0.9c-0.4-0.4-0.8-0.9-1-1.5c-0.2-0.6-0.3-1.3-0.1-2.3c0.1-1,0.4-1.8,0.8-2.5
		c0.3-0.5,0.7-0.9,1.2-1.3c0.5-0.4,1-0.7,1.4-0.9c0.8-0.3,1.7-0.4,2.8-0.4c1.6,0,2.7,0.3,3.5,0.8c0.8,0.6,1.2,1.4,1.5,2.5l-3.5,0.5
		c-0.1-0.4-0.2-0.7-0.5-0.9c-0.3-0.2-0.6-0.3-1.1-0.3c-0.6,0-1.1,0.2-1.6,0.7c-0.4,0.4-0.7,1.1-0.8,2c-0.1,0.8,0,1.4,0.4,1.8
		c0.3,0.4,0.8,0.6,1.4,0.6c0.5,0,0.9-0.1,1.3-0.4C138.6,18.9,138.9,18.5,139.1,18z"/>
	<path class="st5" d="M144.7,8.4h3.7l-0.6,4.9c0.6-0.5,1.1-0.9,1.6-1.1c0.5-0.2,1.1-0.3,1.8-0.3c1,0,1.8,0.3,2.3,0.9
		c0.5,0.6,0.7,1.6,0.5,2.8l-0.7,6.1h-3.7l0.6-5.3c0.1-0.6,0-1-0.2-1.3c-0.2-0.3-0.5-0.4-0.9-0.4c-0.4,0-0.8,0.2-1.2,0.5
		c-0.3,0.3-0.5,0.9-0.6,1.8l-0.5,4.6h-3.7L144.7,8.4z"/>
	<path class="st5" d="M156.2,12.1h3.4l-0.2,1.6c0.6-0.6,1.2-1.1,1.7-1.4c0.6-0.3,1.2-0.4,2-0.4c1,0,1.8,0.3,2.3,0.9
		c0.5,0.6,0.7,1.5,0.5,2.8l-0.7,6.1h-3.7l0.6-5.3c0.1-0.6,0-1-0.2-1.3c-0.2-0.3-0.5-0.4-0.9-0.4c-0.4,0-0.8,0.2-1.2,0.5
		c-0.3,0.3-0.5,0.9-0.6,1.8l-0.5,4.6h-3.7L156.2,12.1z"/>
	<path class="st5" d="M167.1,16.9c0.2-1.5,0.8-2.7,1.9-3.6c1.1-1,2.5-1.4,4.2-1.4c1.9,0,3.3,0.6,4.2,1.7c0.7,0.9,1,2,0.8,3.3
		c-0.2,1.5-0.8,2.7-1.9,3.7c-1.1,0.9-2.5,1.4-4.3,1.4c-1.6,0-2.8-0.4-3.6-1.2C167.4,19.8,166.9,18.5,167.1,16.9z M170.8,16.9
		c-0.1,0.9,0,1.5,0.3,1.9c0.3,0.4,0.7,0.6,1.2,0.6c0.5,0,1-0.2,1.4-0.6c0.4-0.4,0.6-1.1,0.7-2c0.1-0.8,0-1.5-0.3-1.9
		c-0.3-0.4-0.7-0.6-1.2-0.6c-0.5,0-1,0.2-1.4,0.6C171.2,15.5,170.9,16.1,170.8,16.9z"/>
	<path class="st5" d="M180.7,8.4h3.7l-1.6,13.3h-3.7L180.7,8.4z"/>
	<path class="st5" d="M184.8,16.9c0.2-1.5,0.8-2.7,1.9-3.6c1.1-1,2.5-1.4,4.2-1.4c1.9,0,3.3,0.6,4.2,1.7c0.7,0.9,1,2,0.8,3.3
		c-0.2,1.5-0.8,2.7-1.9,3.7c-1.1,0.9-2.5,1.4-4.3,1.4c-1.6,0-2.8-0.4-3.6-1.2C185.1,19.8,184.6,18.5,184.8,16.9z M188.5,16.9
		c-0.1,0.9,0,1.5,0.3,1.9c0.3,0.4,0.7,0.6,1.2,0.6c0.5,0,1-0.2,1.4-0.6c0.4-0.4,0.6-1.1,0.7-2c0.1-0.8,0-1.5-0.3-1.9
		c-0.3-0.4-0.7-0.6-1.2-0.6c-0.5,0-1,0.2-1.4,0.6C188.9,15.5,188.6,16.1,188.5,16.9z"/>
	<path class="st5" d="M204.5,12.1h3.5l-1.1,9.1l0,0.4c-0.1,0.6-0.3,1.2-0.6,1.7c-0.3,0.5-0.7,1-1.2,1.3c-0.5,0.3-1,0.6-1.7,0.7
		c-0.7,0.2-1.4,0.2-2.3,0.2c-1.9,0-3.2-0.3-3.9-0.9c-0.7-0.6-0.9-1.4-0.8-2.3c0-0.1,0-0.3,0.1-0.5l3.5,0.4c0.1,0.3,0.2,0.6,0.3,0.7
		c0.3,0.2,0.6,0.3,1,0.3c0.5,0,0.9-0.1,1.2-0.4c0.3-0.3,0.5-0.8,0.6-1.5l0.2-1.5c-0.4,0.4-0.8,0.7-1.2,0.9c-0.6,0.3-1.2,0.5-1.9,0.5
		c-1.3,0-2.3-0.6-2.9-1.7c-0.5-0.8-0.6-1.9-0.5-3.2c0.2-1.5,0.7-2.6,1.5-3.4c0.8-0.8,1.8-1.2,3-1.2c0.8,0,1.4,0.1,1.8,0.4
		c0.5,0.3,0.9,0.7,1.2,1.3L204.5,12.1z M200.5,16.8c-0.1,0.7,0,1.2,0.3,1.6c0.3,0.3,0.6,0.5,1.1,0.5c0.5,0,0.9-0.2,1.2-0.5
		c0.4-0.3,0.6-0.9,0.7-1.6c0.1-0.7,0-1.2-0.3-1.6c-0.3-0.4-0.7-0.6-1.1-0.6s-0.9,0.2-1.2,0.5C200.8,15.4,200.6,16,200.5,16.8z"/>
	<path class="st5" d="M209.9,12.1h3.7l-1.1,9.7h-3.7L209.9,12.1z M210.3,8.4h3.7l-0.3,2.5H210L210.3,8.4z"/>
	<path class="st5" d="M225.5,17.8h-7.4c0,0.6,0.1,1,0.3,1.3c0.3,0.4,0.8,0.6,1.3,0.6c0.4,0,0.7-0.1,1.1-0.3c0.2-0.1,0.5-0.3,0.7-0.6
		l3.6,0.3c-0.7,1-1.4,1.7-2.3,2.1c-0.8,0.4-2,0.6-3.5,0.6c-1.3,0-2.3-0.2-3-0.5c-0.7-0.4-1.2-0.9-1.6-1.7c-0.4-0.8-0.5-1.7-0.4-2.8
		c0.2-1.5,0.8-2.7,1.9-3.7c1.1-0.9,2.5-1.4,4.2-1.4c1.4,0,2.4,0.2,3.2,0.6c0.8,0.4,1.3,1,1.6,1.8c0.3,0.8,0.4,1.8,0.3,3.1
		L225.5,17.8z M222,16.1c0-0.7-0.1-1.2-0.4-1.5c-0.3-0.3-0.7-0.5-1.2-0.5c-0.6,0-1.1,0.2-1.5,0.7c-0.3,0.3-0.5,0.7-0.6,1.3H222z"/>
	<path class="st5" d="M226,19.1l3.7-0.3c0.1,0.4,0.3,0.7,0.5,0.9c0.3,0.2,0.6,0.3,1.1,0.3c0.5,0,0.9-0.1,1.2-0.3
		c0.2-0.2,0.4-0.4,0.4-0.6c0-0.3-0.1-0.5-0.3-0.6c-0.2-0.1-0.7-0.2-1.5-0.4c-1.3-0.2-2.1-0.4-2.6-0.6c-0.5-0.2-0.9-0.5-1.1-1
		c-0.3-0.5-0.4-1-0.3-1.6c0.1-0.6,0.3-1.2,0.7-1.6c0.4-0.5,1-0.8,1.6-1c0.7-0.2,1.6-0.3,2.6-0.3c1.2,0,2,0.1,2.5,0.3
		c0.5,0.2,1,0.4,1.3,0.8c0.3,0.4,0.6,0.9,0.7,1.5l-3.5,0.3c-0.1-0.3-0.2-0.5-0.4-0.7c-0.3-0.2-0.6-0.3-1-0.3c-0.4,0-0.7,0.1-0.9,0.2
		c-0.2,0.1-0.3,0.3-0.3,0.5c0,0.2,0.1,0.4,0.3,0.5c0.2,0.1,0.7,0.2,1.5,0.3c1.2,0.1,2.1,0.3,2.7,0.6c0.6,0.2,1,0.6,1.3,1.1
		c0.3,0.5,0.4,1,0.3,1.5c-0.1,0.6-0.3,1.1-0.7,1.6c-0.4,0.5-1,0.9-1.7,1.3c-0.8,0.3-1.8,0.5-3,0.5c-1.8,0-3-0.3-3.7-0.8
		C226.5,20.7,226.1,20,226,19.1z"/>
</g>
</svg>
