<?xml version="1.0" encoding="utf-8"?>
<!-- Generator: Adobe Illustrator 23.0.5, SVG Export Plug-In . SVG Version: 6.00 Build 0)  -->
<svg version="1.1" id="Layer_1" xmlns="http://www.w3.org/2000/svg" xmlns:xlink="http://www.w3.org/1999/xlink" x="0px" y="0px"
	 viewBox="0 0 32 32" style="enable-background:new 0 0 32 32;" xml:space="preserve">
<style type="text/css">
	.st0{fill:none;}
</style>
<g>
	<path d="M19.2,4.8l-0.3-0.1c-0.1-0.1-0.3,0-0.4,0.1c-0.1,0.1-0.2,0.2-0.3,0.3l-6.2,21.4c-0.1,0.1,0,0.3,0.1,0.4
		c0.1,0.1,0.2,0.2,0.3,0.3l0.3,0.1c0.1,0.1,0.3,0,0.4-0.1c0.1-0.1,0.2-0.2,0.3-0.3l6.2-21.4c0.1-0.1,0-0.3-0.1-0.4
		C19.5,5,19.5,4.8,19.2,4.8z"/>
	<path d="M10,8.9c0-0.1-0.1-0.3-0.1-0.4L9.6,8C9.4,7.9,9.2,7.9,9.1,7.9S8.8,8,8.7,8L1,15.7c-0.1,0.1-0.1,0.3-0.1,0.4
		s0.1,0.3,0.1,0.4l7.7,7.7c0.1,0.1,0.3,0.1,0.4,0.1s0.3-0.1,0.4-0.1l0.3-0.4c0.1-0.1,0.1-0.3,0.1-0.4c0-0.1-0.1-0.3-0.1-0.4l-7-6.8
		l7-7C10,9.2,10,9,10,8.9z"/>
	<path d="M31,15.7L23.2,8c-0.1-0.1-0.2-0.1-0.3-0.1S22.6,8,22.5,8l-0.3,0.4C22,8.6,22,8.7,22,8.8c0,0.1,0.1,0.3,0.1,0.4l7,6.9
		l-7,6.9C22,23.2,22,23.3,22,23.5c0,0.1,0.1,0.3,0.1,0.4l0.3,0.4c0.1,0.1,0.3,0.1,0.4,0.1s0.3-0.1,0.4-0.1l7.7-7.7
		c0.1-0.1,0.1-0.3,0.1-0.4C31.2,16,31.1,15.9,31,15.7z"/>
</g>
<rect class="st0" width="32" height="32"/>
</svg>
