<?xml version="1.0" encoding="utf-8"?>
<!-- Generator: Adobe Illustrator 23.0.5, SVG Export Plug-In . SVG Version: 6.00 Build 0)  -->
<svg version="1.1" id="Layer_1" xmlns="http://www.w3.org/2000/svg" xmlns:xlink="http://www.w3.org/1999/xlink" x="0px" y="0px"
	 viewBox="0 0 48 48" style="enable-background:new 0 0 48 48;" xml:space="preserve">
<style type="text/css">
	.st0{fill:none;}
</style>
<g>
	<path d="M28.8,7.5l-0.5-0.1c-0.2-0.1-0.4,0-0.6,0.1s-0.3,0.3-0.4,0.5l-9.1,31.6c-0.1,0.2,0,0.4,0.1,0.6c0.1,0.2,0.3,0.3,0.5,0.4
		l0.5,0.1c0.2,0.1,0.4,0,0.6-0.1c0.2-0.1,0.3-0.3,0.4-0.5l9.1-31.6c0.1-0.2,0-0.4-0.1-0.6C29.2,7.7,29.1,7.5,28.8,7.5z"/>
	<path d="M15.2,13.5c0-0.2-0.1-0.4-0.2-0.6l-0.5-0.7C14.2,12,14,12,13.8,12s-0.4,0.1-0.6,0.2L1.8,23.6c-0.2,0.2-0.2,0.4-0.2,0.6
		s0.1,0.4,0.2,0.6l11.4,11.4c0.2,0.2,0.4,0.2,0.6,0.2s0.4-0.1,0.6-0.2l0.5-0.6c0.2-0.2,0.2-0.4,0.2-0.6c0-0.2-0.1-0.4-0.2-0.6
		L4.6,24.3L14.9,14C15.1,13.9,15.2,13.7,15.2,13.5z"/>
	<path d="M46.2,23.6L34.7,12.2C34.6,12,34.4,12,34.2,12s-0.4,0.1-0.6,0.2l-0.5,0.6c-0.2,0.2-0.2,0.4-0.2,0.6c0,0.2,0.1,0.4,0.2,0.6
		l10.3,10.2L33.1,34.4c-0.2,0.2-0.2,0.4-0.2,0.6c0,0.2,0.1,0.4,0.2,0.6l0.5,0.6c0.2,0.2,0.4,0.2,0.6,0.2c0.2,0,0.4-0.1,0.6-0.2
		l11.4-11.4c0.2-0.2,0.2-0.4,0.2-0.6C46.4,24,46.3,23.8,46.2,23.6z"/>
</g>
<rect class="st0" width="48" height="48"/>
</svg>
